<svg width="556" height="154" viewBox="0 0 556 154" fill="none" xmlns="http://www.w3.org/2000/svg">
<path d="M484.761 147.918C461.9 138.31 449.003 118.976 449.316 95.1948C449.605 73.1843 463.376 53.3537 484.677 45.4133C490.486 43.2476 496.961 42.1208 503.174 41.9288C518.991 41.44 534.835 41.8581 550.664 41.6507C554.026 41.6066 554.947 42.9927 555.372 45.8765C560.295 79.2481 535.108 108.874 501.427 109.218C493.951 109.294 486.473 109.229 478.932 109.229C481.306 117.301 490.719 124.489 500.579 125.119C508.879 125.65 517.242 125.161 525.553 125.601C528.07 125.734 531.061 126.861 532.878 128.557C540.411 135.592 547.579 143.02 555.466 150.887C553.582 151.099 552.396 151.347 551.211 151.349C535.712 151.374 520.203 151.681 504.719 151.211C498.162 151.011 491.656 149.157 484.761 147.918ZM487.977 83.3318C493.3 83.2855 498.653 83.576 503.942 83.1207C514.03 82.2522 521.345 76.9953 526.591 68.1517C516.712 68.1517 507.368 67.3215 498.246 68.3919C489.616 69.4046 483.047 74.6996 478.62 83.3318C482.023 83.3318 484.51 83.3318 487.977 83.3318Z" fill="#303293"/>
<path d="M244.476 114.896C234.313 81.5099 252.582 49.7243 285.641 42.7319C286.293 42.5941 286.944 42.3377 287.596 42.337C307.552 42.3158 327.508 42.3197 347.825 42.3197C347.825 78.2747 347.825 114.474 347.825 151.373C346.016 151.373 344.255 151.373 342.495 151.373C328.333 151.373 314.17 151.24 300.011 151.401C273.436 151.703 254.948 139.755 244.476 114.896ZM320.351 67.5749C311.026 67.6985 301.645 67.2244 292.389 68.0876C278.947 69.3412 268.441 80.7235 267.4 93.9309C266.297 107.921 274.721 121.463 288.268 124.013C299.187 126.069 310.619 125.403 322.221 125.964C322.221 106.274 322.23 87.8078 322.18 69.3412C322.179 68.8121 321.565 68.2846 320.351 67.5749Z" fill="#303293"/>
<path d="M190.252 128.887C175.885 148.209 156.951 156.529 133.747 151.678C110.619 146.843 96.1991 131.919 91.056 108.708C84.6919 79.9858 104.025 50.7538 133.286 44.4062C162.586 38.0501 192.443 57.1616 198.397 86.1478C201.521 101.352 199.065 115.557 190.252 128.887ZM118.876 110.968C127.049 124.963 141.551 130.566 155.323 125.052C168.886 119.621 176.336 105.447 172.991 91.4364C169.056 74.957 151.805 65.2538 135.839 70.5394C119.381 75.9875 111.82 93.3735 118.876 110.968Z" fill="#303293"/>
<path d="M367.672 63.3829C379.35 48.7922 394.238 41.6922 412.569 41.7346C427.721 41.7696 442.874 41.7337 458.026 41.7471C459.299 41.7482 460.571 41.8846 463.038 42.0273C454.349 50.6527 446.44 58.6251 438.336 66.3948C437.336 67.3539 435.304 67.5336 433.742 67.5598C426.584 67.6796 419.422 67.5382 412.264 67.6341C395.146 67.8634 382.415 80.262 382.429 96.5983C382.442 112.952 395.17 125.236 412.336 125.461C412.669 125.466 413.002 125.46 413.335 125.465C421.305 125.577 430.169 123.552 436.996 126.404C443.836 129.262 448.639 136.992 454.344 142.577C456.955 145.133 459.588 147.666 462.871 150.849C460.875 151.087 459.696 151.347 458.516 151.349C443.031 151.375 427.545 151.456 412.06 151.34C389.971 151.173 373.061 141.415 362.883 121.995C352.407 102.008 354.439 82.2096 367.672 63.3829Z" fill="#303293"/>
<path d="M232.658 89.1007C232.658 109.557 232.658 129.514 232.658 149.733C223.928 149.733 215.67 149.733 207.065 149.733C207.065 99.7786 207.065 49.9039 207.065 0.0431178C220.679 -0.793266 232.452 10.6444 232.59 25.1089C232.792 46.2711 232.652 67.4366 232.658 89.1007Z" fill="#323494"/>
<path d="M86.4043 46.5419C86.4302 58.7149 77.8859 68.6371 66.1914 68.9179C45.7389 69.409 25.2654 69.0292 4.80071 68.9939C4.50453 68.9934 4.2088 68.7297 3.91376 68.5869C4.89562 55.4392 13.8926 46.3686 26.6643 46.2649C46.4619 46.104 66.2623 46.2798 86.4043 46.5419Z" fill="#313393"/>
<path d="M18.4282 149.995C11.9557 149.995 5.98298 149.995 0.0390895 149.995C-0.685844 138.362 8.76533 127.502 20.6542 127.246C40.9643 126.811 61.2908 127.143 81.6104 127.175C81.9035 127.175 82.1962 127.449 82.4883 127.597C82.4485 140.264 72.6796 149.841 59.4018 149.965C45.9116 150.091 32.4194 149.994 18.4282 149.995Z" fill="#303293"/>
<path d="M73.966 91.4701C79.4356 96.1031 82.4904 101.553 82.6452 108.838C81.4513 109.046 80.3843 109.393 79.3166 109.395C61.6927 109.424 44.0669 109.561 26.4452 109.354C13.6342 109.204 4.90216 100.461 3.98529 87.1472C5.257 87.0263 6.53771 86.8003 7.8187 86.7986C24.9439 86.7768 42.0791 86.4639 59.1881 86.9926C64.056 87.143 68.8476 89.7641 73.966 91.4701Z" fill="#01AEEF"/>
</svg>
