<svg width="425" height="114" viewBox="0 0 425 114" fill="none" xmlns="http://www.w3.org/2000/svg">
<g clip-path="url(#clip0_42_2)">
<mask id="mask0_42_2" style="mask-type:luminance" maskUnits="userSpaceOnUse" x="-223" y="-696" width="2575" height="1449">
<path d="M-222.023 -695.104H2351.97V752.767H-222.023V-695.104Z" fill="white"/>
</mask>
<g mask="url(#mask0_42_2)">
<path d="M69.8271 35.0578H18.9666C10.1158 35.0578 2.94214 42.2315 2.94214 51.0823H53.8026C62.6534 51.0823 69.8271 43.9073 69.8271 35.0578Z" fill="#2E3192"/>
</g>
<mask id="mask1_42_2" style="mask-type:luminance" maskUnits="userSpaceOnUse" x="-223" y="-696" width="2575" height="1449">
<path d="M-222.023 -695.104H2351.97V752.767H-222.023V-695.104Z" fill="white"/>
</mask>
<g mask="url(#mask1_42_2)">
<path d="M66.8849 91.775H16.0258C7.175 91.775 0 98.95 0 107.801H50.8591C59.7099 107.801 66.8849 100.626 66.8849 91.775Z" fill="#2E3192"/>
</g>
<mask id="mask2_42_2" style="mask-type:luminance" maskUnits="userSpaceOnUse" x="-223" y="-696" width="2575" height="1449">
<path d="M-222.023 -695.104H2351.97V752.767H-222.023V-695.104Z" fill="white"/>
</mask>
<g mask="url(#mask2_42_2)">
<path d="M50.8594 63.4181H2.94287C2.94287 72.2688 10.1179 79.4438 18.9687 79.4438H66.8851C66.8851 70.5931 59.7101 63.4181 50.8594 63.4181Z" fill="#00ADEF"/>
</g>
<mask id="mask3_42_2" style="mask-type:luminance" maskUnits="userSpaceOnUse" x="-226" y="-718" width="2651" height="1492">
<path d="M-225.89 -717.38H2424.51V773.469H-225.89V-717.38Z" fill="white"/>
</mask>
<g mask="url(#mask3_42_2)">
<path d="M97.5449 88.8348C102.04 93.3294 107.582 95.5767 114.173 95.5767C120.765 95.5767 126.307 93.3294 130.802 88.8348C135.295 84.3401 137.542 78.6998 137.542 71.9067C137.542 65.1165 135.295 59.4733 130.802 54.9787C126.307 50.4841 120.765 48.2368 114.173 48.2368C107.582 48.2368 102.04 50.4841 97.5449 54.9787C93.0503 59.4733 90.803 65.1165 90.803 71.9067C90.803 78.6998 93.0503 84.3401 97.5449 88.8348ZM114.173 111.305C103.185 111.305 93.8482 107.51 86.1593 99.9209C78.4676 92.3314 74.6245 82.9929 74.6245 71.9067C74.6245 60.8206 78.4676 51.4835 86.1593 43.894C93.8482 36.3044 103.185 32.5083 114.173 32.5083C125.258 32.5083 134.622 36.3044 142.261 43.894C149.901 51.4835 153.722 60.8206 153.722 71.9067C153.722 82.9929 149.901 92.3314 142.261 99.9209C134.622 107.51 125.258 111.305 114.173 111.305Z" fill="#2E3192"/>
</g>
<mask id="mask4_42_2" style="mask-type:luminance" maskUnits="userSpaceOnUse" x="-226" y="-718" width="2651" height="1492">
<path d="M-225.889 -717.38H2424.51V773.469H-225.889V-717.38Z" fill="white"/>
</mask>
<g mask="url(#mask4_42_2)">
<path d="M159.413 4.92837e-05H175.592V109.358H159.413V4.92837e-05Z" fill="#2E3192"/>
</g>
<mask id="mask5_42_2" style="mask-type:luminance" maskUnits="userSpaceOnUse" x="-226" y="-718" width="2651" height="1492">
<path d="M-225.889 -717.38H2424.51V773.469H-225.889V-717.38Z" fill="white"/>
</mask>
<g mask="url(#mask5_42_2)">
<path d="M204.053 89.0595C208.548 93.6052 214.188 95.876 220.981 95.876C227.772 95.876 233.415 93.6052 237.909 89.0595C242.404 84.5166 244.65 78.7975 244.65 71.9065C244.65 65.0155 242.404 59.2992 237.909 54.7535C233.415 50.2105 227.772 47.9383 220.981 47.9383C214.188 47.9383 208.548 50.2105 204.053 54.7535C199.559 59.2992 197.311 65.0155 197.311 71.9065C197.311 78.7975 199.559 84.5166 204.053 89.0595ZM244.65 34.4558H260.828V109.359H244.65V98.572C238.558 107.062 229.819 111.305 218.434 111.305C208.148 111.305 199.357 107.485 192.068 99.8461C184.777 92.2055 181.133 82.8932 181.133 71.9065C181.133 60.8204 184.777 51.4832 192.068 43.8937C199.357 36.3042 208.148 32.5081 218.434 32.5081C229.819 32.5081 238.558 36.7018 244.65 45.0919V34.4558Z" fill="#2E3192"/>
</g>
<mask id="mask6_42_2" style="mask-type:luminance" maskUnits="userSpaceOnUse" x="-170" y="-627" width="2339" height="1233">
<path d="M-169.183 -626.871H2168.08V605.924H-169.183V-626.871Z" fill="white"/>
</mask>
<g mask="url(#mask6_42_2)">
<mask id="mask7_42_2" style="mask-type:luminance" maskUnits="userSpaceOnUse" x="-174" y="-712" width="2343" height="1318">
<path d="M-173.329 -711.653H2168.08V605.924H-173.329V-711.653Z" fill="white"/>
</mask>
<g mask="url(#mask7_42_2)">
<path d="M331.57 85.5896L345.672 93.6304C342.373 99.816 337.636 104.705 331.456 108.309C325.286 111.91 318.435 113.718 310.927 113.718C299.285 113.718 289.577 109.805 281.807 101.972C274.027 94.1447 270.147 84.5183 270.147 73.0769C270.147 61.5405 274.027 51.8897 281.807 44.1061C289.577 36.3359 299.285 32.4404 310.927 32.4404C318.435 32.4404 325.286 34.2505 331.456 37.8497C337.636 41.4539 342.269 46.2951 345.364 52.376L331.485 60.4362C327.238 53.5424 319.634 48.9474 310.945 48.9474C297.624 48.9474 286.82 59.7549 286.82 73.0769C286.82 86.4038 297.624 97.2016 310.945 97.2016C319.682 97.2016 327.338 92.559 331.57 85.5896Z" fill="#2E3192"/>
</g>
</g>
<mask id="mask8_42_2" style="mask-type:luminance" maskUnits="userSpaceOnUse" x="-170" y="-627" width="2339" height="1233">
<path d="M-169.178 -626.871H2168.08V605.924H-169.178V-626.871Z" fill="white"/>
</mask>
<g mask="url(#mask8_42_2)">
<mask id="mask9_42_2" style="mask-type:luminance" maskUnits="userSpaceOnUse" x="-174" y="-712" width="2343" height="1318">
<path d="M-173.329 -711.653H2168.08V605.924H-173.329V-711.653Z" fill="white"/>
</mask>
<g mask="url(#mask9_42_2)">
<path d="M407.044 88.8415L420.789 96.8737C413.176 108.104 401.897 113.718 386.966 113.718C374.397 113.718 364.256 109.876 356.538 102.21C351.753 97.449 353.602 98.7777 348.544 93.2238L364.184 85.5896C365.703 88.9024 367.95 91.6071 370.902 93.7023C375.326 96.8493 380.734 98.4204 387.118 98.4204C395.974 98.4204 402.616 95.2307 407.044 88.8415Z" fill="#2E3192"/>
</g>
</g>
<mask id="mask10_42_2" style="mask-type:luminance" maskUnits="userSpaceOnUse" x="-170" y="-627" width="2339" height="1233">
<path d="M-169.178 -626.871H2168.08V605.924H-169.178V-626.871Z" fill="white"/>
</mask>
<g mask="url(#mask10_42_2)">
<mask id="mask11_42_2" style="mask-type:luminance" maskUnits="userSpaceOnUse" x="-174" y="-712" width="2343" height="1318">
<path d="M-173.329 -711.653H2168.08V605.924H-173.329V-711.653Z" fill="white"/>
</mask>
<g mask="url(#mask11_42_2)">
<path d="M424.493 73.2341C424.493 74.9905 424.285 77.3002 423.884 80.1901H317.948C320.211 73.1537 326.153 66.5878 326.153 66.5878H407.663C406.53 60.3119 403.93 55.5657 399.864 52.376C395.799 49.1862 391.032 47.5859 385.576 47.5859C379.392 47.5859 374.245 49.2862 370.126 52.6856C367.569 54.7893 365.598 57.3793 364.194 60.4362L348.987 53.7563C352.128 48.1871 351.729 48.8523 356.386 44.1061C363.999 36.3359 373.778 32.4404 385.729 32.4404C397.06 32.4404 406.354 36.4066 413.61 44.3438C420.871 52.2712 424.493 61.9025 424.493 73.2341Z" fill="#2E3192"/>
</g>
</g>
<mask id="mask12_42_2" style="mask-type:luminance" maskUnits="userSpaceOnUse" x="-170" y="-627" width="2339" height="1233">
<path d="M-169.178 -626.871H2168.08V605.924H-169.178V-626.871Z" fill="white"/>
</mask>
<g mask="url(#mask12_42_2)">
<mask id="mask13_42_2" style="mask-type:luminance" maskUnits="userSpaceOnUse" x="-174" y="-712" width="2343" height="1318">
<path d="M-173.329 -711.653H2168.08V605.924H-173.329V-711.653Z" fill="white"/>
</mask>
<g mask="url(#mask13_42_2)">
<path d="M310.94 81.3371C306.379 81.3371 302.7 77.6427 302.7 73.0818C302.7 68.5208 306.379 64.835 310.94 64.835C315.502 64.835 319.187 68.5208 319.187 73.0818C319.187 77.6427 315.502 81.3371 310.94 81.3371ZM326.153 66.5878C323.633 60.6837 317.773 56.5469 310.94 56.5469C301.809 56.5469 294.415 63.9453 294.415 73.0818C294.415 82.2183 301.809 89.6167 310.94 89.6167C317.526 89.6167 323.21 85.7652 325.871 80.1951C326.895 78.0377 327.471 75.6292 327.471 73.0818C327.471 70.7818 326.995 68.5831 326.153 66.5878Z" fill="#00ADEF"/>
</g>
</g>
</g>
<defs>
<clipPath id="clip0_42_2">
<rect width="424.492" height="113.718" fill="white"/>
</clipPath>
</defs>
</svg>
