<svg width="653" height="177" viewBox="0 0 653 177" fill="none" xmlns="http://www.w3.org/2000/svg">
<path d="M83.07 100.96H4.79004C4.79004 108.21 7.72004 114.73 12.45 119.48C17.2 124.21 23.75 127.14 30.97 127.14H109.22C109.22 119.91 106.29 113.37 101.56 108.64C96.83 103.89 90.28 100.95 83.06 100.95L83.07 100.96Z" fill="#4DA9E7"/>
<path d="M114.05 54.6499H30.98C16.53 54.6499 4.79004 66.3599 4.79004 80.8199H87.86C102.31 80.8199 114.05 69.1099 114.05 54.6499Z" fill="#2F318B"/>
<path d="M0 173.45H83.07C97.52 173.45 109.24 161.74 109.24 147.28H26.17C11.72 147.28 0 158.99 0 173.45Z" fill="#2F318B"/>
<path d="M652.7 114.29C652.7 96.8701 647.12 82.0601 635.95 69.8601C624.78 57.6601 610.48 51.5601 593.06 51.5601C574.68 51.5601 559.63 57.54 547.91 69.5C536.18 81.46 530.33 96.3101 530.33 114.05C530.33 131.79 536.27 147.04 548.15 158.84C560.03 170.64 575.63 176.54 594.96 176.54C617.93 176.54 635.27 167.91 647 150.64L625.85 138.28C619.04 148.1 608.82 153.01 595.2 153.01C585.38 153.01 577.06 150.6 570.25 145.76C563.44 140.93 559.08 134 557.18 124.97H651.75C652.38 120.54 652.7 116.97 652.7 114.28V114.29ZM556.94 104.07C558.68 95.04 562.72 87.91 569.06 82.68C575.39 77.45 583.32 74.8401 592.82 74.8401C601.21 74.8401 608.54 77.3001 614.8 82.2101C621.06 87.1201 625.05 94.41 626.8 104.07H556.94Z" fill="#2F318B"/>
<path d="M176.77 51.5601C159.34 51.5601 144.53 57.58 132.34 69.62C120.14 81.66 114.04 96.4701 114.04 114.05C114.04 131.63 120.14 146.45 132.34 158.48C144.54 170.52 159.35 176.54 176.77 176.54C194.19 176.54 209.2 170.52 221.32 158.48C233.44 146.44 239.5 131.63 239.5 114.05C239.5 96.4701 233.44 81.66 221.32 69.62C209.2 57.58 194.35 51.5601 176.77 51.5601ZM203.15 140.9C196.02 148.03 187.23 151.59 176.77 151.59C166.31 151.59 157.52 148.03 150.4 140.9C143.27 133.77 139.71 124.82 139.71 114.05C139.71 103.28 143.27 94.33 150.4 87.2C157.53 80.07 166.32 76.51 176.77 76.51C187.22 76.51 196.02 80.07 203.15 87.2C210.28 94.33 213.84 103.28 213.84 114.05C213.84 124.82 210.28 133.77 203.15 140.9Z" fill="#2F318B"/>
<path d="M383.73 71.5201C374.07 58.21 360.21 51.5601 342.15 51.5601C325.83 51.5601 311.89 57.58 300.33 69.62C288.77 81.66 282.98 96.4701 282.98 114.05C282.98 131.63 288.76 146.25 300.33 158.37C311.89 170.49 325.83 176.55 342.15 176.55C360.21 176.55 374.07 169.82 383.73 156.35V173.46H409.39V54.6501H383.73V71.5201ZM373.04 141.26C365.91 148.47 356.96 152.07 346.19 152.07C335.42 152.07 326.47 148.47 319.34 141.26C312.21 134.05 308.65 124.98 308.65 114.05C308.65 103.12 312.21 94.0501 319.34 86.8401C326.47 79.6301 335.42 76.0301 346.19 76.0301C356.96 76.0301 365.91 79.6401 373.04 86.8401C380.17 94.0501 383.73 103.12 383.73 114.05C383.73 124.98 380.17 134.05 373.04 141.26Z" fill="#2F318B"/>
<path d="M499.8 146.37C494.17 149.7 487.88 151.36 480.91 151.36C470.46 151.36 461.7 147.8 454.65 140.67C447.6 133.54 444.08 124.67 444.08 114.06C444.08 103.45 447.6 94.5798 454.65 87.4498C461.7 80.3198 470.45 76.7598 480.91 76.7598C488.04 76.7598 494.33 78.3898 499.8 81.6298C505.27 84.8798 509.34 89.3498 512.04 95.0598L534.14 82.2299C529.39 72.8899 522.26 65.4398 512.75 59.8898C503.24 54.3498 492.71 51.5698 481.15 51.5698C463.25 51.5698 448.32 57.5498 436.36 69.5098C424.4 81.4698 418.42 96.3198 418.42 114.06C418.42 131.8 424.4 146.46 436.36 158.49C448.32 170.53 463.25 176.55 481.15 176.55C492.71 176.55 503.25 173.78 512.75 168.23C522.25 162.69 529.54 155.16 534.61 145.66L512.51 133.07C509.66 138.62 505.42 143.05 499.8 146.38V146.37Z" fill="#2F318B"/>
<path d="M274.19 0H248.53V173.46H274.19V0Z" fill="#2F318B"/>
</svg>
